<?xml version="1.0" encoding="utf-8"?>
<!-- Generator: Adobe Illustrator 26.1.0, SVG Export Plug-In . SVG Version: 6.00 Build 0)  -->
<svg version="1.1" id="Layer_1" xmlns="http://www.w3.org/2000/svg" xmlns:xlink="http://www.w3.org/1999/xlink" x="0px" y="0px"
	 viewBox="0 0 48 48" style="enable-background:new 0 0 48 48;" xml:space="preserve">
<path d="M20,42c-0.4,0-0.8-0.1-1.1-0.4s-0.4-0.6-0.4-1.1v-4.8h-3.6c-0.8,0-1.5-0.3-2.1-0.9s-0.9-1.3-0.9-2.1v-5.6h-2
	c-0.7,0-1.2-0.3-1.5-0.9c-0.3-0.6-0.3-1.3,0.1-2l3.4-6.2c0.9-3.6,2.6-6.5,5.1-8.7S22.6,6,26,6c3.8,0,7.1,1.4,9.9,4.1s4.1,6,4.1,9.9
	c0,2.8-0.8,5.3-2.3,7.5c-1.6,2.2-3.7,3.9-6.4,5.2v7.8c0,0.4-0.1,0.8-0.4,1.1c-0.3,0.3-0.6,0.4-1.1,0.4H20z M21.5,39h6.8v-8.2
	l1.4-0.6c2.2-1,4-2.4,5.4-4.2s2-3.7,2-5.9c0-3-1.1-5.6-3.2-7.8C31.6,10.1,29,9,26,9c-3,0-5.5,1-7.6,3s-3.2,4.2-3.4,6.6L12,24.1h2.9
	v8.6h6.6V39z M25.1,27.3h1.6c0.2,0,0.4-0.1,0.5-0.2c0.1-0.1,0.2-0.3,0.2-0.5l0.1-1.5c0.5-0.1,0.9-0.3,1.2-0.5
	c0.3-0.2,0.6-0.4,0.9-0.7l1.5,0.5c0.2,0.1,0.3,0.1,0.5,0c0.2-0.1,0.3-0.2,0.4-0.4l0.8-1.3c0.1-0.2,0.1-0.3,0.1-0.5
	c0-0.2-0.1-0.3-0.2-0.4l-1-0.8c0.2-0.5,0.2-0.9,0.2-1.4s-0.1-1-0.2-1.5l1-0.8c0.2-0.1,0.2-0.3,0.2-0.5c0-0.2,0-0.3-0.1-0.5L32,15.1
	c-0.1-0.2-0.2-0.3-0.4-0.4c-0.2-0.1-0.3-0.1-0.5,0l-1.5,0.5c-0.2-0.2-0.5-0.4-0.9-0.6c-0.3-0.2-0.7-0.4-1.2-0.5l-0.1-1.5
	c0-0.2-0.1-0.4-0.2-0.5s-0.3-0.2-0.5-0.2h-1.6c-0.2,0-0.4,0.1-0.5,0.2c-0.1,0.1-0.2,0.3-0.2,0.5l-0.1,1.5c-0.4,0.1-0.8,0.3-1.2,0.5
	s-0.6,0.4-0.9,0.6l-1.5-0.5c-0.2-0.1-0.3-0.1-0.5,0s-0.3,0.2-0.4,0.4l-0.8,1.3C19,16.6,19,16.7,19,16.9c0,0.2,0.1,0.3,0.2,0.5l1,0.8
	c-0.2,0.5-0.2,1-0.2,1.5s0.1,1,0.2,1.4l-1,0.8C19.1,22,19,22.1,19,22.3c0,0.2,0,0.3,0.1,0.5l0.8,1.3c0.1,0.2,0.2,0.3,0.4,0.4
	s0.3,0.1,0.5,0l1.5-0.5c0.2,0.2,0.5,0.5,0.9,0.7c0.3,0.2,0.7,0.4,1.2,0.5l0.1,1.5c0,0.2,0.1,0.4,0.2,0.5
	C24.8,27.2,24.9,27.3,25.1,27.3z M26,23.1c-1,0-1.8-0.3-2.5-1c-0.7-0.7-1-1.5-1-2.5c0-1,0.3-1.8,1-2.5c0.7-0.7,1.5-1,2.5-1
	c1,0,1.8,0.3,2.5,1s1,1.5,1,2.5c0,1-0.3,1.8-1,2.5S26.9,23.1,26,23.1z M24.5,24L24.5,24L24.5,24L24.5,24L24.5,24L24.5,24L24.5,24z"
	/>
</svg>
