<?xml version="1.0" encoding="utf-8"?>
<!-- Generator: Adobe Illustrator 26.1.0, SVG Export Plug-In . SVG Version: 6.00 Build 0)  -->
<svg version="1.1" id="Layer_1" xmlns="http://www.w3.org/2000/svg" xmlns:xlink="http://www.w3.org/1999/xlink" x="0px" y="0px"
	 viewBox="0 0 48 48" style="enable-background:new 0 0 48 48;" xml:space="preserve">
<path d="M15.5,44c-0.4,0-0.8-0.1-1.1-0.4c-0.3-0.3-0.4-0.6-0.4-1.1V8.7c0-0.4,0.1-0.8,0.4-1.1c0.3-0.3,0.6-0.4,1.1-0.4H20V5.5
	c0-0.4,0.1-0.8,0.4-1.1C20.7,4.1,21.1,4,21.5,4h5c0.4,0,0.8,0.1,1.1,0.4C27.9,4.7,28,5.1,28,5.5v1.7h4.5c0.4,0,0.8,0.1,1.1,0.4
	S34,8.3,34,8.7v33.8c0,0.4-0.1,0.8-0.4,1.1S32.9,44,32.5,44H15.5z M17,19h14v-8.8H17V19z"/>
</svg>
