<?xml version="1.0" encoding="utf-8"?>
<!-- Generator: Adobe Illustrator 26.1.0, SVG Export Plug-In . SVG Version: 6.00 Build 0)  -->
<svg version="1.1" id="Layer_1" xmlns="http://www.w3.org/2000/svg" xmlns:xlink="http://www.w3.org/1999/xlink" x="0px" y="0px"
	 viewBox="0 0 48 48" style="enable-background:new 0 0 48 48;" xml:space="preserve">
<path d="M21.2,42c-0.4,0-0.6-0.1-0.9-0.3s-0.3-0.5-0.2-0.9L22,27.9h-7.3c-0.4,0-0.6-0.2-0.8-0.5c-0.2-0.3-0.2-0.6,0-0.9L25.8,6.7
	c0.1-0.2,0.3-0.3,0.5-0.5C26.5,6.1,26.7,6,27,6c0.4,0,0.6,0.1,0.8,0.3C28,6.6,28.1,6.9,28,7.2L26.1,20h7.2c0.4,0,0.6,0.2,0.8,0.5
	c0.2,0.3,0.2,0.6,0,1L22.4,41.3c-0.1,0.2-0.3,0.3-0.5,0.5C21.7,41.9,21.4,42,21.2,42z"/>
</svg>
