<?xml version="1.0" encoding="utf-8"?>
<!-- Generator: Adobe Illustrator 26.1.0, SVG Export Plug-In . SVG Version: 6.00 Build 0)  -->
<svg version="1.1" id="Layer_1" xmlns="http://www.w3.org/2000/svg" xmlns:xlink="http://www.w3.org/1999/xlink" x="0px" y="0px"
	 viewBox="0 0 48 48" style="enable-background:new 0 0 48 48;" xml:space="preserve">
<path d="M29.2,22.9c-0.6,0-1.2-0.2-1.6-0.6c-0.4-0.4-0.6-1-0.6-1.6c0-0.6,0.2-1.2,0.6-1.6c0.4-0.4,1-0.6,1.6-0.6
	c0.6,0,1.2,0.2,1.6,0.6c0.4,0.4,0.7,1,0.7,1.6c0,0.6-0.2,1.2-0.7,1.6S29.8,22.9,29.2,22.9z M18.8,22.9c-0.6,0-1.2-0.2-1.6-0.6
	c-0.4-0.4-0.6-1-0.6-1.6c0-0.6,0.2-1.2,0.6-1.6c0.4-0.4,1-0.6,1.6-0.6s1.2,0.2,1.6,0.6c0.4,0.4,0.6,1,0.6,1.6c0,0.6-0.2,1.2-0.6,1.6
	C19.9,22.7,19.4,22.9,18.8,22.9z M24,33.7c-1.9,0-3.6-0.5-5.1-1.5c-1.5-1-2.7-2.3-3.6-4h17.4c-0.9,1.6-2.1,3-3.6,4
	C27.6,33.2,25.9,33.7,24,33.7z M24,42c-2.5,0-4.8-0.5-7-1.4c-2.2-1-4.1-2.2-5.7-3.9c-1.6-1.6-2.9-3.5-3.9-5.7S6,26.5,6,24
	s0.5-4.8,1.4-7s2.2-4.1,3.9-5.7s3.5-2.9,5.7-3.9S21.5,6,24,6s4.8,0.5,7,1.4s4.1,2.2,5.7,3.9c1.6,1.6,2.9,3.5,3.9,5.7
	c0.9,2.2,1.4,4.5,1.4,7s-0.5,4.8-1.4,7c-1,2.2-2.2,4.1-3.9,5.7c-1.6,1.6-3.5,2.9-5.7,3.9C28.8,41.5,26.5,42,24,42z M24,39
	c4.1,0,7.6-1.5,10.6-4.4c2.9-2.9,4.4-6.4,4.4-10.5s-1.5-7.7-4.3-10.8c-2.9-3.1-6.5-4.6-10.8-4.6c-0.4,0-0.7,0-0.9,0s-0.5,0-0.9,0.1
	C22,9.1,22,9.4,21.9,9.8c0,0.4-0.1,0.7-0.1,0.9c0,0.8,0.3,1.5,0.8,2.1c0.6,0.6,1.2,0.8,2.1,0.8c0.4,0,0.7,0,1-0.1s0.5-0.1,0.8-0.1
	c0.3,0,0.6,0.1,0.9,0.2c0.2,0.2,0.4,0.4,0.4,0.8c0,0.5-0.2,0.9-0.8,1.2c-0.5,0.3-1.2,0.4-2.2,0.4c-1.5,0-2.8-0.5-3.9-1.6
	c-1-1-1.5-2.3-1.5-3.9c0-0.2,0-0.4,0-0.6c0-0.3,0.1-0.5,0.1-0.7c-3,1.1-5.5,2.9-7.5,5.5s-3,5.6-3,9c0,4.1,1.5,7.6,4.4,10.6
	S19.9,39,24,39z M24,23.9L24,23.9L24,23.9L24,23.9L24,23.9L24,23.9L24,23.9L24,23.9L24,23.9z"/>
</svg>
