<?xml version="1.0" encoding="utf-8"?>
<!-- Generator: Adobe Illustrator 26.1.0, SVG Export Plug-In . SVG Version: 6.00 Build 0)  -->
<svg version="1.1" id="Layer_1" xmlns="http://www.w3.org/2000/svg" xmlns:xlink="http://www.w3.org/1999/xlink" x="0px" y="0px"
	 viewBox="0 0 48 48" style="enable-background:new 0 0 48 48;" xml:space="preserve">
<path d="M10.6,39.2C9.2,37.8,8,36,7.2,34S6,30.1,6,28c0-2.4,0.4-4.7,1.3-6.7s2.1-3.9,3.8-5.6c1.2-1.2,2.6-2.2,4.3-2.9
	c1.7-0.8,3.8-1.4,6.1-1.9c2.4-0.5,5-0.7,8-0.9s6.3-0.1,9.9,0.2c0.3,3.6,0.4,6.9,0.3,9.9s-0.3,5.7-0.8,8c-0.4,2.4-1.1,4.4-1.9,6.2
	c-0.8,1.8-1.8,3.3-3,4.5c-1.7,1.7-3.5,3-5.5,3.9c-2,0.9-4.1,1.3-6.3,1.3c-2.3,0-4.4-0.4-6.3-1.2S12.2,40.9,10.6,39.2z M15.8,39.2
	c0.8,0.6,1.8,1,2.9,1.3c1.1,0.3,2.3,0.5,3.5,0.5c1.8,0,3.5-0.4,5.1-1.1c1.7-0.7,3.2-1.8,4.5-3.2c0.9-0.9,1.7-2.1,2.3-3.5
	c0.6-1.4,1.2-3.2,1.5-5.1s0.7-4.2,0.8-6.7c0.1-2.5,0.1-5.2,0-8.2c-3.1-0.1-5.9,0-8.4,0.1s-4.7,0.4-6.6,0.8s-3.5,0.9-4.9,1.5
	c-1.4,0.6-2.5,1.4-3.3,2.3c-1.4,1.4-2.5,3-3.2,4.6C9.4,23.9,9,25.6,9,27.2c0,1.6,0.3,3.3,1,5c0.7,1.8,1.5,3.2,2.5,4.2
	c1.8-3.3,3.9-6.2,6.3-8.8s5.1-4.7,7.9-6.2c-2.9,2.5-5.2,5.2-7,8.1C17.9,32.6,16.6,35.8,15.8,39.2z M15.8,39.2L15.8,39.2L15.8,39.2
	L15.8,39.2L15.8,39.2L15.8,39.2L15.8,39.2L15.8,39.2L15.8,39.2L15.8,39.2L15.8,39.2z M15.8,39.2L15.8,39.2L15.8,39.2L15.8,39.2
	L15.8,39.2L15.8,39.2L15.8,39.2L15.8,39.2L15.8,39.2L15.8,39.2L15.8,39.2L15.8,39.2L15.8,39.2L15.8,39.2L15.8,39.2L15.8,39.2
	L15.8,39.2L15.8,39.2L15.8,39.2L15.8,39.2L15.8,39.2z"/>
</svg>
