<?xml version="1.0" encoding="utf-8"?>
<!-- Generator: Adobe Illustrator 26.1.0, SVG Export Plug-In . SVG Version: 6.00 Build 0)  -->
<svg version="1.1" id="Layer_1" xmlns="http://www.w3.org/2000/svg" xmlns:xlink="http://www.w3.org/1999/xlink" x="0px" y="0px"
	 viewBox="0 0 38.7 38.7" style="enable-background:new 0 0 38.7 38.7;" xml:space="preserve">
<style type="text/css">
	.st0{fill:#EBEAFA;}
	.st1{fill:#EDEDED;}
</style>
<path class="st0" d="M19.4,38.7C8.7,38.7,0,30,0,19.4C0,8.7,8.7,0,19.4,0s19.4,8.7,19.4,19.4C38.7,30,30,38.7,19.4,38.7z M19.4,1.5
	c-9.8,0-17.9,8-17.9,17.9c0,9.8,8,17.9,17.9,17.9c9.8,0,17.9-8,17.9-17.9C37.2,9.5,29.2,1.5,19.4,1.5z"/>
<path class="st1" d="M25.6,19l-5.7,5.7c-0.1,0.1-0.2,0.1-0.3,0.1s-0.2,0-0.3-0.1L13.6,19c-0.1-0.1-0.1-0.2-0.1-0.3
	c0-0.1,0-0.2,0.1-0.3l0.6-0.6c0.1-0.1,0.2-0.1,0.3-0.1c0.1,0,0.2,0,0.3,0.1l4.8,4.8l4.8-4.8c0.1-0.1,0.2-0.1,0.3-0.1s0.2,0,0.3,0.1
	l0.6,0.6c0.1,0.1,0.1,0.2,0.1,0.3C25.7,18.8,25.7,18.9,25.6,19z"/>
</svg>
