<?xml version="1.0" encoding="utf-8"?>
<!-- Generator: Adobe Illustrator 26.1.0, SVG Export Plug-In . SVG Version: 6.00 Build 0)  -->
<svg version="1.1" id="Layer_1" xmlns="http://www.w3.org/2000/svg" xmlns:xlink="http://www.w3.org/1999/xlink" x="0px" y="0px"
	 viewBox="0 0 253.8 50.4" style="enable-background:new 0 0 253.8 50.4;" xml:space="preserve">
<style type="text/css">
	.st0{fill:#FFFFFF;}
</style>
<g>
	<path class="st0" d="M50.4,25.2C50.4,11.3,39.1,0,25.2,0C11.3,0,0,11.3,0,25.2c0,13.9,11.3,25.2,25.2,25.2
		C39.1,50.4,50.4,39.1,50.4,25.2 M12,27.8h5c0,4.6,3.5,8.1,8.2,8.1c4.7,0,8.2-3.5,8.2-8.1h5v0.1c0,7.7-5.7,13.5-13.2,13.5
		C17.7,41.3,12,35.5,12,27.8L12,27.8z M40.4,21h-3.6v3.6h-3.3V21h-3.6v-3.4H17v7h-5V12.4h17.8v5.3h3.6V14h3.3v3.6h3.6V21z"/>
	<path class="st0" d="M71,33.4V12.9h-5.8v26h16.7v-5.5H71z M92.7,39.4c5.5,0,9.1-3.2,9.1-8.1V19.7h-5.5v10.8c0,2.2-1.4,3.6-3.6,3.6
		c-2.2,0-3.6-1.4-3.6-3.6V19.7h-5.5v11.5C83.6,36.1,87.2,39.4,92.7,39.4 M117.4,38.7h-6c-1,0-1.7-0.6-1.7-1.4c0-0.6,0.3-1.1,0.9-1.5
		c0.9,0.3,1.8,0.4,2.8,0.4c5.2,0,9.1-3.6,9.1-8.5c0-1.8-0.6-3.5-1.5-4.8c0.2-0.7,0.9-1.2,1.8-1.2h1.4v-5.1h-1.6
		c-2.6,0-4.6,1.3-5.1,3.4c-1.2-0.5-2.6-0.8-4-0.8c-5.2,0-9.1,3.6-9.1,8.5c0,2.4,0.9,4.5,2.5,6c-1.6,1-2.6,2.9-2.6,5
		c0,3.2,2.5,5.4,6.2,5.4h6c1.5,0,2.6,0.8,2.8,2.1l5.7-1.5C124.1,40.9,121.3,38.7,117.4,38.7 M113.4,24.4c2,0,3.5,1.4,3.5,3.3
		c0,1.9-1.5,3.3-3.5,3.3c-2,0-3.4-1.4-3.4-3.3C109.9,25.8,111.4,24.4,113.4,24.4 M143.3,25.3h-5.4v-5.5h-5.1v5.5h-5.4v5h5.4v5.5h5.1
		v-5.5h5.4V25.3z M161.9,40.2c4.9,0,9.1-2.3,11.5-5.8l-5.1-3.1c-1.4,2-3.7,3.4-6.4,3.4c-4.4,0-7.8-3.4-7.8-7.8
		c0-4.5,3.4-7.8,7.8-7.8c2.7,0,5.1,1.3,6.4,3.4l5.1-3.1c-2.5-3.6-6.6-5.8-11.5-5.8c-7.8,0-13.8,5.8-13.8,13.5
		C148.1,34.4,154,40.2,161.9,40.2 M188.8,19.7v1.9c-1.5-1.5-3.5-2.4-5.8-2.4c-5.3,0-9.3,4.3-9.3,10.1c0,5.7,4,10.1,9.3,10.1
		c2.3,0,4.3-0.9,5.8-2.4v1.9h5.5V19.7H188.8z M184.1,34.1c-2.7,0-4.7-2-4.7-4.8c0-2.7,2-4.8,4.7-4.8c2.7,0,4.7,2,4.7,4.8
		C188.8,32,186.8,34.1,184.1,34.1 M208.1,19.4c-2.1,0-3.8,0.9-5.2,2.5v-2.2h-5.5v19.2h5.5v-9c0-3,1.8-4.9,5.2-4.9h0.8v-5.7H208.1z
		 M222.1,19.4c-2.1,0-3.8,0.9-5.2,2.5v-2.2h-5.5v19.2h5.5v-9c0-3,1.8-4.9,5.2-4.9h0.8v-5.7H222.1z M228,17.9c1.8,0,3.2-1.4,3.2-3.2
		c0-1.8-1.4-3.2-3.2-3.2c-1.8,0-3.2,1.4-3.2,3.2C224.8,16.5,226.2,17.9,228,17.9 M225.2,38.9h5.5V19.7h-5.5V38.9z M253.8,29.4
		c0-5.8-4.3-10.1-10.1-10.1c-5.8,0-10.3,4.3-10.3,10c0,5.8,4.6,10.2,10.7,10.2c3.5,0,6.6-1.4,8.7-3.7l-3.7-3.2
		c-0.9,1.1-2.6,2.2-4.8,2.2c-2.4,0-4.3-1.3-4.9-3.5h14.3C253.7,30.6,253.8,29.9,253.8,29.4 M243.6,24c2.1,0,3.7,1.3,4.3,3.5h-8.6
		C239.9,25.4,241.5,24,243.6,24"/>
</g>
</svg>
