<?xml version="1.0" encoding="utf-8"?>
<!-- Generator: Adobe Illustrator 26.1.0, SVG Export Plug-In . SVG Version: 6.00 Build 0)  -->
<svg version="1.1" id="Layer_1" xmlns="http://www.w3.org/2000/svg" xmlns:xlink="http://www.w3.org/1999/xlink" x="0px" y="0px"
	 viewBox="0 0 53.2 53.2" style="enable-background:new 0 0 53.2 53.2;" xml:space="preserve">
<style type="text/css">
	.st0{fill:#00C1DC;}
	.st1{fill:#FFFFFF;}
</style>
<g>
	<path class="st0" d="M26.6,53.2c14.7,0,26.6-11.9,26.6-26.6C53.2,11.9,41.3,0,26.6,0C11.9,0,0,11.9,0,26.6
		C0,41.3,11.9,53.2,26.6,53.2"/>
</g>
<g>
	<path class="st1" d="M37.1,26.9l-14.8,8.2c-0.2,0.1-0.3,0.1-0.4,0c-0.1-0.1-0.2-0.2-0.2-0.4V18.4c0-0.2,0.1-0.3,0.2-0.4
		c0.1-0.1,0.3-0.1,0.4,0l14.8,8.2c0.2,0.1,0.3,0.2,0.3,0.3C37.4,26.7,37.3,26.8,37.1,26.9z"/>
</g>
</svg>
